<?xml version="1.0" encoding="iso-8859-1"?>
<!-- Generator: Adobe Illustrator 19.0.0, SVG Export Plug-In . SVG Version: 6.00 Build 0)  -->
<svg version="1.1" id="Layer_1" xmlns="http://www.w3.org/2000/svg" xmlns:xlink="http://www.w3.org/1999/xlink" x="0px" y="0px"
	 viewBox="0 0 512 512" style="enable-background:new 0 0 512 512;" xml:space="preserve">
<path style="fill:#FFD791;" d="M360.752,307.841H275.24c-4.427,0-8.017,3.588-8.017,8.017v188.125c0,4.428,3.589,8.017,8.017,8.017
	h85.512c4.427,0,8.017-3.588,8.017-8.017V315.858C368.768,311.43,365.179,307.841,360.752,307.841z"/>
<g>
	<path style="fill:#F8BE73;" d="M275.24,307.841h-34.205c-4.427,0-8.017,3.588-8.017,8.017v188.125c0,4.428,3.589,8.017,8.017,8.017
		h34.205c4.427,0,8.017-3.588,8.017-8.017V315.858C283.257,311.43,279.667,307.841,275.24,307.841z"/>
	<path style="fill:#F8BE73;" d="M335.098,444.66c-4.427,0-8.017,3.588-8.017,8.017V512h16.033v-59.324
		C343.115,448.248,339.525,444.66,335.098,444.66z"/>
	<path style="fill:#F8BE73;" d="M327.081,315.858v94.063c0,4.428,3.589,8.017,8.017,8.017c4.427,0,8.017-3.588,8.017-8.017v-94.063
		c0-4.428-3.589-8.017-8.017-8.017C330.671,307.841,327.081,311.43,327.081,315.858z"/>
	<path style="fill:#F8BE73;" d="M300.894,342.046c-4.427,0-8.017,3.588-8.017,8.017v94.063c0,4.428,3.589,8.017,8.017,8.017
		c4.427,0,8.017-3.588,8.017-8.017v-94.063C308.91,345.634,305.321,342.046,300.894,342.046z"/>
</g>
<path style="fill:#C4DF64;" d="M429.161,85.511H159.8c-39.784,0-72.15,32.366-72.15,72.15v158.196c0,4.428,3.589,8.017,8.017,8.017
	h397.628c4.427,0,8.017-3.588,8.017-8.017V157.662C501.311,117.878,468.945,85.511,429.161,85.511z"/>
<path style="fill:#D8ED8C;" d="M501.311,157.662c0-39.784-32.366-72.15-72.15-72.15H159.8c-39.784,0-72.15,32.366-72.15,72.15v5.344
	h413.662V157.662z"/>
<path style="fill:#BDBCBC;" d="M211.106,85.511H159.8c-39.784,0-72.15,32.366-72.15,72.15v158.196c0,4.428,3.589,8.017,8.017,8.017
	H275.24c4.427,0,8.017-3.588,8.017-8.017V157.662C283.257,117.878,250.891,85.511,211.106,85.511z"/>
<path style="fill:#D3D2D2;" d="M193.203,85.511H159.8c-39.784,0-72.15,32.366-72.15,72.15v158.196c0,4.428,3.589,8.017,8.017,8.017
	h25.386V157.662C121.052,117.815,153.355,85.511,193.203,85.511z"/>
<path style="fill:#F4F4F4;" d="M241.035,171.557H52.91c-4.427,0-8.017,3.588-8.017,8.017v128.267c0,4.428,3.589,8.017,8.017,8.017
	h188.125c4.427,0,8.017-3.588,8.017-8.017V179.574C249.052,175.146,245.463,171.557,241.035,171.557z"/>
<path style="fill:#E9E9E9;" d="M249.052,198.585v-19.011c0-4.427-3.589-8.017-8.017-8.017H52.91c-4.427,0-8.017,3.589-8.017,8.017
	v18.519l97.089,77.612c2.92,2.334,7.065,2.341,9.993,0.015L249.052,198.585z"/>
<path style="fill:#F4F4F4;" d="M248.585,176.879c-1.139-3.191-4.162-5.322-7.55-5.322H52.91c-3.388,0-6.411,2.13-7.55,5.322
	c-1.138,3.192-0.149,6.753,2.473,8.9l94.063,76.96c2.919,2.387,7.234,2.387,10.153,0l94.063-76.96
	C248.735,183.633,249.725,180.07,248.585,176.879z"/>
<path style="fill:#A7A6A6;" d="M26.722,307.841v-17.637c0-4.428-3.589-8.017-8.017-8.017s-8.017,3.588-8.017,8.017v25.653
	c0,4.428,3.589,8.017,8.017,8.017H275.24c4.427,0,8.017-3.588,8.017-8.017v-8.017H26.722z"/>
<path style="fill:#FF8C78;" d="M437.712,0h-76.96c-4.427,0-8.017,3.588-8.017,8.017v166.747c0,16.208,13.186,29.395,29.395,29.395
	c16.209,0,29.395-13.187,29.395-29.395V55.727l29.773-14.886c2.716-1.357,4.432-4.133,4.432-7.17V8.017
	C445.729,3.588,442.139,0,437.712,0z"/>
<g>
	<path style="fill:#DF7A6E;" d="M360.752,0c-4.427,0-8.017,3.588-8.017,8.017v166.747c0,12.075,7.321,22.469,17.756,26.986V0
		H360.752z"/>
	<path style="fill:#DF7A6E;" d="M382.129,178.505c-4.427,0-8.017-3.588-8.017-8.017v-8.551c0-4.428,3.589-8.017,8.017-8.017
		c4.427,0,8.017,3.588,8.017,8.017v8.551C390.146,174.917,386.557,178.505,382.129,178.505z"/>
</g>
<g>
</g>
<g>
</g>
<g>
</g>
<g>
</g>
<g>
</g>
<g>
</g>
<g>
</g>
<g>
</g>
<g>
</g>
<g>
</g>
<g>
</g>
<g>
</g>
<g>
</g>
<g>
</g>
<g>
</g>
</svg>
